<svg xmlns="http://www.w3.org/2000/svg" width="20" height="21" fill="none"><path fill="#8D8D8D" fill-rule="evenodd" d="M4.167 9.81c0-2.686 2.242-4.87 5-4.87 2.757 0 5 2.184 5 4.87 0 2.685-2.243 4.87-5 4.87-2.758 0-5-2.185-5-4.87m13.089 6.73-2.83-2.756a6.348 6.348 0 0 0 1.407-3.975c0-3.58-2.99-6.493-6.666-6.493S2.5 6.23 2.5 9.81c0 3.58 2.99 6.493 6.667 6.493a6.74 6.74 0 0 0 4.08-1.37l2.83 2.756a.842.842 0 0 0 .59.238c.213 0 .426-.08.589-.238a.796.796 0 0 0 0-1.148" clip-rule="evenodd"/><mask id="a" width="16" height="15" x="2" y="3" maskUnits="userSpaceOnUse" style="mask-type:luminance"><path fill="#fff" fill-rule="evenodd" d="M4.167 9.81c0-2.686 2.242-4.87 5-4.87 2.757 0 5 2.184 5 4.87 0 2.685-2.243 4.87-5 4.87-2.758 0-5-2.185-5-4.87m13.089 6.73-2.83-2.756a6.348 6.348 0 0 0 1.407-3.975c0-3.58-2.99-6.493-6.666-6.493S2.5 6.23 2.5 9.81c0 3.58 2.99 6.493 6.667 6.493a6.74 6.74 0 0 0 4.08-1.37l2.83 2.756a.842.842 0 0 0 .59.238c.213 0 .426-.08.589-.238a.796.796 0 0 0 0-1.148" clip-rule="evenodd"/></mask><g mask="url(#a)"><path fill="#8D8D8D" d="M0 .881h20v19.48H0z"/></g></svg>